<svg width="24" height="24" viewBox="0 0 24 24" fill="none" xmlns="http://www.w3.org/2000/svg">
<path d="M8.10938 4.125L8.13281 3.9375L8.20312 3.75L8.29688 3.58594L8.41406 3.44531L8.55469 3.30469L8.71875 3.23438L8.90625 3.16406L9.09375 3.14062L19.9688 3.16406L20.1797 3.1875L20.25 3.23438L20.4375 3.30469L20.5781 3.44531L20.6953 3.58594L20.7891 3.75L20.8359 3.9375L20.8594 4.125V15.1875L20.8125 15.375L20.7891 15.4688L20.6953 15.6328L20.5781 15.7969L20.4375 15.9141L20.25 16.0078L20.0625 16.0547L19.875 16.0781L19.6875 16.0547L19.5 16.0078L19.3359 15.9141L19.1719 15.7969L19.0547 15.6328L18.9609 15.4688L18.9141 15.2812L18.8906 15.0938V6.63281L4.82812 20.5781L4.66406 20.6953L4.5 20.7891L4.3125 20.8359L4.125 20.8594L3.9375 20.8359L3.75 20.7891L3.58594 20.6953L3.42188 20.5547L3.30469 20.4141L3.21094 20.2266L3.16406 20.0625L3.14062 19.875L3.16406 19.6875L3.21094 19.5L3.30469 19.3125L3.42188 19.1719L17.625 5.10938H9L8.8125 5.0625L8.71875 5.03906L8.55469 4.94531L8.41406 4.82812L8.29688 4.6875L8.20312 4.52344L8.13281 4.33594V4.24219L8.10938 4.125Z" fill="#D2FF50"/>
</svg>
