<svg width="12" height="12" viewBox="0 0 12 12" fill="none" xmlns="http://www.w3.org/2000/svg">
<path d="M4.17188 4.17188L4.25391 4.11328L4.33594 4.06641L4.42969 4.04297L4.52344 4.03125L4.61719 4.04297L4.71094 4.06641L4.79297 4.11328L4.875 4.17188L6 5.30859L7.16016 4.13672L7.24219 4.08984L7.33594 4.05469L7.42969 4.03125H7.52344L7.61719 4.05469L7.71094 4.08984L7.79297 4.13672L7.86328 4.20703L7.91016 4.28906L7.94531 4.38281L7.96875 4.47656V4.57031L7.94531 4.66406L7.91016 4.75781L7.86328 4.83984L6.69141 6L7.86328 7.16016L7.91016 7.24219L7.94531 7.33594L7.96875 7.42969V7.52344L7.94531 7.61719L7.91016 7.71094L7.86328 7.79297L7.79297 7.86328L7.71094 7.91016L7.61719 7.94531L7.52344 7.96875H7.42969L7.33594 7.94531L7.24219 7.91016L7.16016 7.86328L6 6.69141L4.83984 7.86328L4.75781 7.91016L4.66406 7.94531L4.57031 7.96875H4.47656L4.38281 7.94531L4.28906 7.91016L4.20703 7.86328L4.13672 7.79297L4.08984 7.71094L4.05469 7.61719L4.03125 7.52344V7.42969L4.05469 7.33594L4.08984 7.24219L4.13672 7.16016L5.30859 6L4.13672 4.83984L4.08984 4.75781L4.05469 4.66406L4.03125 4.57031V4.47656L4.05469 4.38281L4.08984 4.28906L4.13672 4.20703L4.17188 4.17188ZM10.4297 6L10.418 5.77734L10.4062 5.54297L10.3828 5.32031L10.3359 5.10938L10.2891 4.89844L10.2305 4.6875L10.1602 4.47656L10.0781 4.27734L9.99609 4.07812L9.89062 3.89062L9.78516 3.70312L9.66797 3.52734L9.55078 3.35156L9.42188 3.1875L9.28125 3.02344L9.12891 2.87109L8.97656 2.71875L8.8125 2.57812L8.64844 2.44922L8.47266 2.33203L8.29688 2.21484L8.10938 2.10938L7.92188 2.00391L7.72266 1.92188L7.52344 1.83984L7.3125 1.76953L7.10156 1.71094L6.89062 1.66406L6.67969 1.61719L6.45703 1.59375L6.22266 1.57031H6H5.77734L5.54297 1.59375L5.32031 1.61719L5.10938 1.66406L4.89844 1.71094L4.6875 1.76953L4.47656 1.83984L4.27734 1.92188L4.07812 2.00391L3.89062 2.10938L3.70312 2.21484L3.52734 2.33203L3.35156 2.44922L3.1875 2.57812L3.02344 2.71875L2.87109 2.87109L2.71875 3.02344L2.57812 3.1875L2.44922 3.35156L2.33203 3.52734L2.21484 3.70312L2.10938 3.89062L2.00391 4.07812L1.92188 4.27734L1.83984 4.47656L1.76953 4.6875L1.71094 4.89844L1.66406 5.10938L1.61719 5.32031L1.59375 5.54297L1.58203 5.77734L1.57031 6L1.58203 6.22266L1.59375 6.45703L1.61719 6.67969L1.66406 6.89062L1.71094 7.10156L1.76953 7.3125L1.83984 7.52344L1.92188 7.72266L2.00391 7.92188L2.10938 8.10938L2.21484 8.29688L2.33203 8.47266L2.44922 8.64844L2.57812 8.8125L2.71875 8.97656L2.87109 9.12891L3.02344 9.28125L3.1875 9.42188L3.35156 9.55078L3.52734 9.66797L3.70312 9.78516L3.89062 9.89062L4.07812 9.99609L4.27734 10.0781L4.47656 10.1602L4.6875 10.2305L4.89844 10.2891L5.10938 10.3359L5.32031 10.3828L5.54297 10.4062L5.77734 10.4297H6H6.22266L6.45703 10.4062L6.67969 10.3828L6.89062 10.3359L7.10156 10.2891L7.3125 10.2305L7.52344 10.1602L7.72266 10.0781L7.92188 9.99609L8.10938 9.89062L8.29688 9.78516L8.47266 9.66797L8.64844 9.55078L8.8125 9.42188L8.97656 9.28125L9.12891 9.12891L9.28125 8.97656L9.42188 8.8125L9.55078 8.64844L9.66797 8.47266L9.78516 8.29688L9.89062 8.10938L9.99609 7.92188L10.0781 7.72266L10.1602 7.52344L10.2305 7.3125L10.2891 7.10156L10.3359 6.89062L10.3828 6.67969L10.4062 6.45703L10.418 6.22266L10.4297 6ZM0.585938 6L0.597656 5.71875L0.609375 5.44922L0.644531 5.17969L0.691406 4.91016L0.761719 4.65234L0.832031 4.39453L0.914062 4.13672L1.00781 3.89062L1.125 3.65625L1.24219 3.42188L1.37109 3.1875L1.51172 2.97656L1.66406 2.76562L1.82812 2.55469L1.99219 2.35547L2.16797 2.16797L2.35547 1.99219L2.55469 1.81641L2.76562 1.66406L2.97656 1.51172L3.1875 1.37109L3.42188 1.24219L3.65625 1.125L3.89062 1.00781L4.13672 0.914062L4.39453 0.832031L4.65234 0.761719L4.91016 0.691406L5.17969 0.644531L5.44922 0.609375L5.71875 0.597656L6 0.585938L6.28125 0.597656L6.55078 0.609375L6.82031 0.644531L7.08984 0.691406L7.34766 0.761719L7.60547 0.832031L7.86328 0.914062L8.10938 1.00781L8.34375 1.125L8.57812 1.24219L8.8125 1.37109L9.02344 1.51172L9.23438 1.66406L9.44531 1.82812L9.64453 1.99219L9.83203 2.16797L10.0078 2.35547L10.1719 2.55469L10.3359 2.76562L10.4883 2.97656L10.6289 3.1875L10.7578 3.42188L10.875 3.65625L10.9922 3.89062L11.0859 4.13672L11.168 4.39453L11.2383 4.65234L11.3086 4.91016L11.3555 5.17969L11.3906 5.44922L11.4023 5.71875L11.4141 6L11.4023 6.28125L11.3906 6.55078L11.3555 6.82031L11.3086 7.08984L11.2383 7.34766L11.168 7.60547L11.0859 7.86328L10.9922 8.10938L10.875 8.34375L10.7578 8.57812L10.6289 8.8125L10.4883 9.02344L10.3359 9.23438L10.1719 9.44531L10.0078 9.64453L9.83203 9.83203L9.64453 10.0078L9.44531 10.1719L9.23438 10.3359L9.02344 10.4883L8.8125 10.6289L8.57812 10.7578L8.34375 10.875L8.10938 10.9922L7.86328 11.0859L7.60547 11.168L7.34766 11.2383L7.08984 11.3086L6.82031 11.3555L6.55078 11.3906L6.28125 11.4023L6 11.4141L5.71875 11.4023L5.44922 11.3906L5.17969 11.3555L4.91016 11.3086L4.65234 11.2383L4.39453 11.168L4.13672 11.0859L3.89062 10.9922L3.65625 10.875L3.42188 10.7578L3.1875 10.6289L2.97656 10.4883L2.76562 10.3359L2.55469 10.1719L2.35547 10.0078L2.16797 9.83203L1.99219 9.64453L1.82812 9.44531L1.66406 9.23438L1.51172 9.02344L1.37109 8.8125L1.24219 8.57812L1.125 8.34375L1.00781 8.10938L0.914062 7.86328L0.832031 7.60547L0.761719 7.34766L0.691406 7.08984L0.644531 6.82031L0.609375 6.55078L0.597656 6.28125L0.585938 6Z" fill="#FFB900"/>
</svg>
